<?xml version="1.0" encoding="UTF-8"?>
<svg version="1.1" xmlns="http://www.w3.org/2000/svg" width="300" height="300">
<path d="M0 0 C0.99 0.33 1.98 0.66 3 1 C3.05607422 2.19496094 3.05607422 2.19496094 3.11328125 3.4140625 C3.54081529 10.30490519 3.89151251 15.89151251 9 21 C15.34107203 21.49736306 15.34107203 21.49736306 21 19 C22.56935594 15.86128812 22.35201103 13.46144178 22 10 C19.64581624 7.06026719 19.64581624 7.06026719 17 5 C17.33 4.01 17.66 3.02 18 2 C23.75 2.75 23.75 2.75 26 5 C26.33 4.01 26.66 3.02 27 2 C28.65 2.33 30.3 2.66 32 3 C34.06901598 16.39268453 30.42873548 25.25264507 22.72265625 36.25 C13.81463884 48.24447665 3.02734819 58.70991959 -8.24829102 68.4621582 C-10.21263111 70.18667085 -12.06193907 71.99253961 -13.875 73.875 C-16.78354978 76.89177489 -16.78354978 76.89177489 -19 78 C-13.39 78 -7.78 78 -2 78 C-3 82 -3 82 -4.84765625 83.484375 C-5.57855469 83.90203125 -6.30945312 84.3196875 -7.0625 84.75 C-7.79597656 85.17796875 -8.52945313 85.6059375 -9.28515625 86.046875 C-10.13400391 86.51867187 -10.13400391 86.51867187 -11 87 C-9.42734206 88.57265794 -7.67159971 88.30757977 -5.5 88.5 C-1.11111111 88.88888889 -1.11111111 88.88888889 0 90 C0.15919851 91.85946135 0.25149107 93.72470925 0.31640625 95.58984375 C0.3793689 97.34409668 0.3793689 97.34409668 0.44360352 99.13378906 C0.48283936 100.38901367 0.5220752 101.64423828 0.5625 102.9375 C0.6049585 104.20174805 0.64741699 105.46599609 0.69116211 106.76855469 C0.999407 116.51579152 1.1160824 126.24907815 1 136 C-4.7109375 136.1640625 -4.7109375 136.1640625 -7.3125 134.6875 C-9 133 -9 133 -10 130 C-10.66 130.99 -11.32 131.98 -12 133 C-14.81797506 132.70848534 -15.8542233 132.15583027 -17.8125 130.0625 C-21.23500134 121.23604918 -16.34409092 109.78761525 -14 101 C-16.45600648 108.60646666 -18.64741104 116.11583017 -20 124 C-21.8984375 124.56640625 -21.8984375 124.56640625 -24 125 C-27.2993294 122.84274616 -28.14077275 119.71308919 -29 116 C-28.1015625 112.5703125 -28.1015625 112.5703125 -26.625 109.125 C-26.14289062 107.97257812 -25.66078125 106.82015625 -25.1640625 105.6328125 C-24.77992187 104.76398438 -24.39578125 103.89515625 -24 103 C-25.46569415 104.46569415 -26.14978184 106.20762116 -27.0625 108.0625 C-27.42472656 108.79597656 -27.78695312 109.52945313 -28.16015625 110.28515625 C-28.43730469 110.85105469 -28.71445312 111.41695313 -29 112 C-31.80118166 111.64680753 -32.79693904 111.24270619 -34.640625 109.0390625 C-35.17171875 108.24242187 -35.7028125 107.44578125 -36.25 106.625 C-39.73089232 101.87832865 -42.39318176 100.54670848 -48 99 C-49 98 -49 98 -49.0625 95.4375 C-49.0315625 94.2309375 -49.0315625 94.2309375 -49 93 C-47.02 92.01 -47.02 92.01 -45 91 C-45.825 90.649375 -46.65 90.29875 -47.5 89.9375 C-48.7375 88.9784375 -48.7375 88.9784375 -50 88 C-50.3125 84.3125 -50.3125 84.3125 -50 81 C-47.03 80.01 -47.03 80.01 -44 79 C-44.825 78.278125 -45.65 77.55625 -46.5 76.8125 C-49 74 -49 74 -49.3125 71.1875 C-49.1578125 70.1046875 -49.1578125 70.1046875 -49 69 C-46.22530561 70.06091256 -43.66730113 71.18404618 -41.0625 72.625 C-37.68571982 74.14110539 -35.65754723 74.39755948 -32 74 C-29.69769234 73.10168984 -29.69769234 73.10168984 -28 72 C-27.32845316 69.71658257 -27.32845316 69.71658257 -28 67 C-30.48053942 64.98728161 -33.17640062 63.48112914 -36 62 C-35.67 61.34 -35.34 60.68 -35 60 C-32.69 60 -30.38 60 -28 60 C-29.65 59.34 -31.3 58.68 -33 58 C-33 57.01 -33 56.02 -33 55 C-27.71830739 53.58296052 -24.80517364 54.50500599 -20 57 C-19.34 57.66 -18.68 58.32 -18 59 C-14.17715388 59.3324214 -11.08892185 59.42701002 -8 57 C-6.70768358 53.95800528 -6.70768358 53.95800528 -6 51 C-7.051875 51.061875 -8.10375 51.12375 -9.1875 51.1875 C-14.13787213 50.94403908 -16.55589048 49.44410952 -20 46 C-20.3125 43 -20.3125 43 -20 40 C-19.01 39.34 -18.02 38.68 -17 38 C-16.27617533 35.94074861 -16.27617533 35.94074861 -16 34 C-12.10635283 34.57683662 -9.98810959 36.54821777 -7 39 C-2.95887394 40.34704202 0.77477852 40.55760358 5 40 C7.30596047 38.53711443 7.30596047 38.53711443 8 36 C7.77426109 32.80764728 7.77426109 32.80764728 7 30 C6.33613281 29.97421875 5.67226562 29.9484375 4.98828125 29.921875 C-0.51766256 29.56820854 -4.04186392 29.2134997 -8 25 C-9.2866645 22.426671 -9.16824551 20.49776962 -9.1875 17.625 C-9.20167969 16.66851562 -9.21585938 15.71203125 -9.23046875 14.7265625 C-8.99745572 11.96989983 -8.40920164 10.35052605 -7 8 C-6.01 8.33 -5.02 8.66 -4 9 C-3.94392578 10.01320313 -3.94392578 10.01320313 -3.88671875 11.046875 C-3.78810547 12.38492188 -3.78810547 12.38492188 -3.6875 13.75 C-3.62949219 14.63171875 -3.57148437 15.5134375 -3.51171875 16.421875 C-2.92540066 19.37584398 -2.10498604 20.86001419 0 23 C0.99 23 1.98 23 3 23 C2.195625 22.05125 1.39125 21.1025 0.5625 20.125 C-2.64466747 16.34218709 -3.17704186 14.07837179 -3.25 9.0625 C-3.27578125 8.00160156 -3.3015625 6.94070312 -3.328125 5.84765625 C-3 3 -3 3 -1.484375 1.12109375 C-0.99453125 0.75113281 -0.5046875 0.38117188 0 0 Z M-16 40 C-15.72382467 41.94074861 -15.72382467 41.94074861 -15 44 C-11.3558226 46.4294516 -9.28758728 46.16179575 -5 46 C-7.91777506 44.05481663 -10.8542951 42.53938751 -14 41 C-14.66 40.67 -15.32 40.34 -16 40 Z M-32 85 C-31.67 85.66 -31.34 86.32 -31 87 C-30.01 86.67 -29.02 86.34 -28 86 C-29.32 85.67 -30.64 85.34 -32 85 Z M-6 103 C-5 105 -5 105 -5 105 Z M-7 105 C-8.90420731 111.80074041 -10.40850553 117.91923749 -10 125 C-9.67 125 -9.34 125 -9 125 C-8.46867611 122.41842632 -7.94965621 119.83538244 -7.4375 117.25 C-7.28603516 116.52039063 -7.13457031 115.79078125 -6.97851562 115.0390625 C-6.25442822 111.33442927 -5.90182769 108.60677678 -7 105 Z " fill="#FEFEFE" transform="translate(70,68)"/>
<path d="M0 0 C4.37415276 -0.07493936 8.74795155 -0.12896881 13.12255859 -0.16479492 C14.60634889 -0.17975184 16.09009599 -0.20012495 17.57373047 -0.22631836 C27.30245141 -0.3936025 36.54422682 -0.52352018 45 4.9375 C48.61949096 8.67010006 49.30933936 11.71407344 49.375 16.875 C49.27331319 22.10551534 48.65763243 25.05360711 45 29 C39.77333333 34 39.77333333 34 37 34 C46.93933935 50.33296178 46.93933935 50.33296178 61 63 C60.505 64.98 60.505 64.98 60 67 C52.60445633 66.85045776 46.39962083 66.42026947 41 61 C36.51427449 55.21859331 32.71632183 48.90634967 29 42.61328125 C26.26166589 39.03526265 24.22932605 38.91607736 19.97558594 38.29052734 C19.32364258 38.19465332 18.67169922 38.0987793 18 38 C18.1140575 40.91747073 18.24080268 43.83344495 18.375 46.75 C18.4059375 47.575 18.436875 48.4 18.46875 49.25 C18.50742188 50.04921875 18.54609375 50.8484375 18.5859375 51.671875 C18.63306885 52.77160645 18.63306885 52.77160645 18.68115234 53.89355469 C19.05061454 56.33438149 19.63253767 57.94129909 21 60 C24.54588501 61.29920746 24.54588501 61.29920746 28 62 C27.67 63.32 27.34 64.64 27 66 C17.76 66 8.52 66 -1 66 C-1 64.68 -1 63.36 -1 62 C1.64 61.01 4.28 60.02 7 59 C7 41.84 7 24.68 7 7 C4.69 6.34 2.38 5.68 0 5 C0 3.35 0 1.7 0 0 Z M20 5 C17.70244078 8.44633882 17.76356024 9.71068391 17.8046875 13.76171875 C17.81113281 14.87998047 17.81757813 15.99824219 17.82421875 17.15039062 C17.84097656 18.31763672 17.85773438 19.48488281 17.875 20.6875 C17.88402344 21.86634766 17.89304688 23.04519531 17.90234375 24.25976562 C17.92593577 27.17338026 17.9588546 30.08658892 18 33 C19.76017358 33.0457359 21.52069083 33.0783722 23.28125 33.10546875 C24.26158203 33.12504639 25.24191406 33.14462402 26.25195312 33.16479492 C30.1545108 32.93076628 32.16086307 31.62620166 35 29 C38.41934514 25.12474217 38.45134989 21.3356124 38.2890625 16.37109375 C37.77873844 12.18505719 36.10241917 9.96461677 33 7.25 C28.66770553 4.54231596 24.94637587 4.68594439 20 5 Z " fill="#FEFEFE" transform="translate(118,111)"/>
<path d="M0 0 C1.65 0 3.3 0 5 0 C8.21601304 7.3773979 11.10017723 14.85306671 13.8828125 22.40234375 C14.22632751 23.33390289 14.56984253 24.26546204 14.92376709 25.22525024 C16.35714013 29.1189034 17.78712777 33.01377522 19.21240234 36.91040039 C20.26478537 39.7843619 21.32339634 42.65596877 22.3828125 45.52734375 C22.70162384 46.40446518 23.02043518 47.28158661 23.34890747 48.18528748 C25.59536548 54.38860627 25.59536548 54.38860627 29 60 C32.57996259 61.36900354 32.57996259 61.36900354 36 62 C36 63.32 36 64.64 36 66 C27.09 66 18.18 66 9 66 C9 64.68 9 63.36 9 62 C10.98 61.34 12.96 60.68 15 60 C14.45859375 58.41058594 14.45859375 58.41058594 13.90625 56.7890625 C13.43734207 55.40109501 12.96860069 54.01307125 12.5 52.625 C12.26152344 51.92632812 12.02304688 51.22765625 11.77734375 50.5078125 C10 45.2265625 10 45.2265625 10 43 C3.07 43 -3.86 43 -11 43 C-11.474375 44.876875 -11.94875 46.75375 -12.4375 48.6875 C-12.70433594 49.74324219 -12.97117188 50.79898438 -13.24609375 51.88671875 C-13.89897932 54.5828317 -14.47941193 57.2757576 -15 60 C-13.02 60.66 -11.04 61.32 -9 62 C-9 63.32 -9 64.64 -9 66 C-16.59 66 -24.18 66 -32 66 C-32 64.68 -32 63.36 -32 62 C-30.948125 61.87625 -29.89625 61.7525 -28.8125 61.625 C-26.21334326 60.87501639 -25.23075135 60.34340151 -23.70491028 58.07266235 C-23.32896225 57.27089569 -22.95301422 56.46912903 -22.56567383 55.64306641 C-22.14170319 54.74017883 -21.71773254 53.83729126 -21.28091431 52.90704346 C-19.12254051 48.00859991 -17.10334488 43.06414407 -15.13671875 38.0859375 C-14.69987259 36.99028473 -14.26302643 35.89463196 -13.8129425 34.76577759 C-12.43369901 31.30379837 -11.0605052 27.83945736 -9.6875 24.375 C-8.74714543 22.01155931 -7.80639402 19.64827647 -6.86523438 17.28515625 C-4.57223358 11.52525379 -2.28418002 5.76340575 0 0 Z M-1 16 C-2.17461555 19.10121711 -3.33830456 22.20642241 -4.5 25.3125 C-4.83386719 26.19357422 -5.16773438 27.07464844 -5.51171875 27.98242188 C-5.98544922 29.25375977 -5.98544922 29.25375977 -6.46875 30.55078125 C-6.76201172 31.33106689 -7.05527344 32.11135254 -7.35742188 32.9152832 C-8.14727883 35.11423319 -8.14727883 35.11423319 -8 38 C-2.72 38 2.56 38 8 38 C6.88399532 34.51770732 5.75772923 31.03934943 4.625 27.5625 C4.14933594 26.07266602 4.14933594 26.07266602 3.6640625 24.55273438 C3.3546875 23.60849609 3.0453125 22.66425781 2.7265625 21.69140625 C2.44377441 20.81685791 2.16098633 19.94230957 1.86962891 19.04125977 C1.18468928 16.82251791 1.18468928 16.82251791 -1 16 Z " fill="#FEFEFE" transform="translate(213,111)"/>
<path d="M0 0 C9.24 0 18.48 0 28 0 C28 1.32 28 2.64 28 4 C25.69 4.66 23.38 5.32 21 6 C21 23.49 21 40.98 21 59 C23.31 59.66 25.62 60.32 28 61 C28 62.32 28 63.64 28 65 C18.76 65 9.52 65 0 65 C0 63.68 0 62.36 0 61 C2.64 60.34 5.28 59.68 8 59 C8 41.84 8 24.68 8 7 C5.36 6.01 2.72 5.02 0 4 C0 2.68 0 1.36 0 0 Z " fill="#FEFEFE" transform="translate(251,112)"/>
<path d="M0 0 C2.97 0 5.94 0 9 0 C9 0.66 9 1.32 9 2 C8.34 2 7.68 2 7 2 C7 6.95 7 11.9 7 17 C8.65 16.67 10.3 16.34 12 16 C12.33 15.34 12.66 14.68 13 14 C13.66 14 14.32 14 15 14 C15 14.99 15 15.98 15 17 C15.99 17 16.98 17 18 17 C18.18175781 16.35933594 18.36351562 15.71867187 18.55078125 15.05859375 C20.06270045 9.85604103 21.75000671 4.92855673 24 0 C24.99 0 25.98 0 27 0 C28.00419637 2.4566947 29.00350501 4.91518353 30 7.375 C30.28617188 8.07367188 30.57234375 8.77234375 30.8671875 9.4921875 C33 14.7734375 33 14.7734375 33 17 C33.66 17 34.32 17 35 17 C35 17.66 35 18.32 35 19 C32.36 19 29.72 19 27 19 C27.33 17.02 27.66 15.04 28 13 C26.02 13.33 24.04 13.66 22 14 C21.67 14.99 21.34 15.98 21 17 C21.66 17 22.32 17 23 17 C23 17.66 23 18.32 23 19 C15.41 19 7.82 19 0 19 C0 18.34 0 17.68 0 17 C0.99 17 1.98 17 3 17 C2.88658363 14.68690295 2.75896193 12.37449815 2.625 10.0625 C2.55539063 8.77472656 2.48578125 7.48695312 2.4140625 6.16015625 C2.27742187 5.11730469 2.14078125 4.07445313 2 3 C1.34 2.67 0.68 2.34 0 2 C0 1.34 0 0.68 0 0 Z M24 6 C23.67 7.32 23.34 8.64 23 10 C23.99 10 24.98 10 26 10 C25.34 8.68 24.68 7.36 24 6 Z " fill="#FEFEFE" transform="translate(163,76)"/>
<path d="M0 0 C2.97 0 5.94 0 9 0 C9 0.66 9 1.32 9 2 C8.34 2 7.68 2 7 2 C8.32 4.97 9.64 7.94 11 11 C12.32 8.03 13.64 5.06 15 2 C14.34 2 13.68 2 13 2 C13 1.34 13 0.68 13 0 C18.61 0 24.22 0 30 0 C30 0.66 30 1.32 30 2 C29.01 2.495 29.01 2.495 28 3 C28 7.29 28 11.58 28 16 C28.66 16.33 29.32 16.66 30 17 C30 17.66 30 18.32 30 19 C27.03 19 24.06 19 21 19 C21 18.34 21 17.68 21 17 C21.66 16.67 22.32 16.34 23 16 C23 11.71 23 7.42 23 3 C21.35 3.33 19.7 3.66 18 4 C16.70395437 6.5562559 15.75933523 8.80747095 14.875 11.5 C14.00397571 14.06599047 13.06829702 16.50146926 12 19 C11.01 19.33 10.02 19.66 9 20 C8.60167969 18.86820313 8.20335938 17.73640625 7.79296875 16.5703125 C7.25833749 15.08835217 6.72315234 13.60659157 6.1875 12.125 C5.79594727 11.00544922 5.79594727 11.00544922 5.39648438 9.86328125 C5.13544922 9.14785156 4.87441406 8.43242188 4.60546875 7.6953125 C4.36981201 7.03547363 4.13415527 6.37563477 3.89135742 5.69580078 C2.98608101 3.64519426 2.98608101 3.64519426 0 2 C0 1.34 0 0.68 0 0 Z " fill="#FEFEFE" transform="translate(117,76)"/>
<path d="M0 0 C2.97 0 5.94 0 9 0 C9 0.66 9 1.32 9 2 C8.01 2.495 8.01 2.495 7 3 C6.52998967 6.27555608 6.52998967 6.27555608 6.375 10.0625 C6.30023438 11.35285156 6.22546875 12.64320312 6.1484375 13.97265625 C6.09945312 14.97167969 6.05046875 15.97070312 6 17 C10.41522109 15.73025028 10.41522109 15.73025028 14 13 C15.125 16.75 15.125 16.75 14 19 C9.38 19 4.76 19 0 19 C0 18.34 0 17.68 0 17 C0.66 17 1.32 17 2 17 C2 12.05 2 7.1 2 2 C1.34 2 0.68 2 0 2 C0 1.34 0 0.68 0 0 Z " fill="#FEFEFE" transform="translate(148,76)"/>
<path d="M0 0 C2.33333333 0 4.66666667 0 7 0 C7 2.97 7 5.94 7 9 C5.68 8.67 4.36 8.34 3 8 C2.01 8.33 1.02 8.66 0 9 C0 6.03 0 3.06 0 0 Z " fill="#FEFEFE" transform="translate(263,195)"/>
<path d="M0 0 C2.31 0 4.62 0 7 0 C7 2.97 7 5.94 7 9 C4.69 9 2.38 9 0 9 C0 6.03 0 3.06 0 0 Z " fill="#FEFEFE" transform="translate(200,195)"/>
<path d="M0 0 C0.99 0 1.98 0 3 0 C3 2.31 3 4.62 3 7 C3.66 7 4.32 7 5 7 C5 4.69 5 2.38 5 0 C5.99 0 6.98 0 8 0 C8.125 6.75 8.125 6.75 7 9 C5.02 9 3.04 9 1 9 C-0.4783226 6.04335481 -0.06032783 3.25770263 0 0 Z " fill="#FEFEFE" transform="translate(234,195)"/>
<path d="M0 0 C1.66611905 -0.042721 3.33382885 -0.04063832 5 0 C6 1 6 1 6.09765625 2.84765625 C6.06510417 4.8984375 6.03255208 6.94921875 6 9 C4.02 9 2.04 9 0 9 C-0.84454356 5.62182575 -1.10844919 3.32534757 0 0 Z " fill="#FEFEFE" transform="translate(210,195)"/>
<path d="M0 0 C1.99954746 -0.04254356 4.00041636 -0.04080783 6 0 C8.04698414 2.04698414 7.70045693 6.30411241 8 9 C7.01 9 6.02 9 5 9 C5 8.01 5 7.02 5 6 C4.01 6 3.02 6 2 6 C2 6.99 2 7.98 2 9 C1.34 9 0.68 9 0 9 C0 6.03 0 3.06 0 0 Z " fill="#FEFEFE" transform="translate(244,195)"/>
<path d="M0 0 C1.99954746 -0.04254356 4.00041636 -0.04080783 6 0 C7 1 7 1 7.09765625 2.84765625 C7.06510417 4.8984375 7.03255208 6.94921875 7 9 C6.34 9 5.68 9 5 9 C5 8.01 5 7.02 5 6 C4.01 6 3.02 6 2 6 C2 6.99 2 7.98 2 9 C1.34 9 0.68 9 0 9 C0 6.03 0 3.06 0 0 Z " fill="#FEFEFE" transform="translate(191,195)"/>
<path d="M0 0 C2.31 0 4.62 0 7 0 C7 3 7 6 7 9 C4.69 9 2.38 9 0 9 C0 6.03 0 3.06 0 0 Z " fill="#FEFEFE" transform="translate(148,195)"/>
<path d="M0 0 C0.78375 0.04125 1.5675 0.0825 2.375 0.125 C3.5 2.375 3.5 2.375 4.375 5.125 C3.5 7.4375 3.5 7.4375 2.375 9.125 C0.37545254 9.16754356 -1.62541636 9.16580783 -3.625 9.125 C-4.625 8.125 -4.625 8.125 -4.8125 5.1875 C-4.57390036 1.29037256 -3.98646018 0.18983144 0 0 Z M-1.625 2.125 C-1.955 3.445 -2.285 4.765 -2.625 6.125 C-1.305 6.125 0.015 6.125 1.375 6.125 C1.045 4.805 0.715 3.485 0.375 2.125 C-0.285 2.125 -0.945 2.125 -1.625 2.125 Z " fill="#FEFEFE" transform="translate(132.625,194.875)"/>
<path d="M0 0 C0.66 0 1.32 0 2 0 C2 0.99 2 1.98 2 3 C2.99 3 3.98 3 5 3 C5 2.01 5 1.02 5 0 C5.66 0 6.32 0 7 0 C7 2.97 7 5.94 7 9 C6.34 9 5.68 9 5 9 C5 8.01 5 7.02 5 6 C4.01 6 3.02 6 2 6 C2 6.99 2 7.98 2 9 C1.34 9 0.68 9 0 9 C0 6.03 0 3.06 0 0 Z " fill="#FEFEFE" transform="translate(118,195)"/>
<path d="M0 0 C0.99 0.33 1.98 0.66 3 1 C3.73046875 2.84765625 3.73046875 2.84765625 4.1875 5.0625 C4.34605469 5.79597656 4.50460937 6.52945313 4.66796875 7.28515625 C4.83232422 8.13400391 4.83232422 8.13400391 5 9 C4.01 9 3.02 9 2 9 C2 8.34 2 7.68 2 7 C0.35 7.66 -1.3 8.32 -3 9 C-2.44271087 5.65626525 -1.64826111 2.96687001 0 0 Z " fill="#FEFEFE" transform="translate(256,195)"/>
<path d="M0 0 C3 1 3 1 4.1875 3.375 C5 6 5 6 5 9 C2.525 8.01 2.525 8.01 0 7 C0 7.66 0 8.32 0 9 C-0.99 9 -1.98 9 -3 9 C-2.01 6.03 -1.02 3.06 0 0 Z " fill="#FEFEFE" transform="translate(228,195)"/>
<path d="M0 0 C2.64 0 5.28 0 8 0 C8 0.66 8 1.32 8 2 C7.34 2 6.68 2 6 2 C6 3.98 6 5.96 6 8 C5.01 8.33 4.02 8.66 3 9 C3 6.69 3 4.38 3 2 C2.01 2 1.02 2 0 2 C0 1.34 0 0.68 0 0 Z " fill="#FEFEFE" transform="translate(217,195)"/>
<path d="M0 0 C0.99 0 1.98 0 3 0 C3 2.31 3 4.62 3 7 C4.32 7 5.64 7 7 7 C7 7.66 7 8.32 7 9 C4.69 9 2.38 9 0 9 C0 6.03 0 3.06 0 0 Z " fill="#FEFEFE" transform="translate(157,195)"/>
<path d="M0 0 C2.64 0 5.28 0 8 0 C8 0.66 8 1.32 8 2 C7.01 2 6.02 2 5 2 C5 4.31 5 6.62 5 9 C4.34 9 3.68 9 3 9 C3 6.69 3 4.38 3 2 C2.01 2 1.02 2 0 2 C0 1.34 0 0.68 0 0 Z " fill="#FEFEFE" transform="translate(271,195)"/>
<path d="M0 0 C2.64 0 5.28 0 8 0 C8 0.66 8 1.32 8 2 C7.01 2 6.02 2 5 2 C5 4.31 5 6.62 5 9 C4.34 9 3.68 9 3 9 C3 6.69 3 4.38 3 2 C2.01 2 1.02 2 0 2 C0 1.34 0 0.68 0 0 Z " fill="#FEFEFE" transform="translate(138,195)"/>
<path d="M0 0 C1.32 0.33 2.64 0.66 4 1 C3.67 2.32 3.34 3.64 3 5 C2.01 5 1.02 5 0 5 C0 3.35 0 1.7 0 0 Z " fill="#FEFEFE" transform="translate(174,197)"/>
</svg>
