<svg version="1.1" id="Layer_1" xmlns="http://www.w3.org/2000/svg" xmlns:xlink="http://www.w3.org/1999/xlink" x="0px" y="0px"
	 width="100%" viewBox="0 0 848 416" enable-background="new 0 0 848 416" xml:space="preserve">
<path fill="#000000" opacity="1.000000" stroke="none" 
	d="
M53.007915,214.215271 
	C54.196362,210.123337 56.715805,211.099060 59.021645,212.276337 
	C62.597832,214.102249 65.618546,216.754913 68.768410,219.224731 
	C82.059563,229.646317 99.352745,230.275925 112.633606,222.240631 
	C120.901817,217.238129 121.021027,202.457809 112.319878,198.499054 
	C107.619362,196.360474 102.848167,194.434967 98.107010,192.416565 
	C95.924416,191.487381 93.529831,190.474564 93.933548,187.559387 
	C94.299652,184.915909 96.622490,183.910751 98.882042,183.154144 
	C101.177406,182.385574 103.469978,182.655975 105.751976,183.377197 
	C111.160065,185.086441 116.501862,186.907303 121.345039,189.984528 
	C123.745308,191.509598 126.333588,192.753708 129.667099,190.199188 
	C126.812485,183.622208 120.692841,181.673676 114.954674,179.451080 
	C112.356819,178.444855 109.410248,178.377396 106.675888,177.674057 
	C104.077835,177.005814 101.044197,176.180893 101.188942,172.847519 
	C101.336403,169.451248 104.368095,168.302872 107.198135,167.797653 
	C115.405663,166.332474 123.123451,167.891983 130.100845,172.453995 
	C133.719894,174.820236 137.186066,177.446732 140.555084,180.161896 
	C144.433838,183.287842 148.698715,184.455734 153.609818,183.749466 
	C163.165009,182.375351 171.859711,179.542297 176.852783,170.343475 
	C177.877502,168.455627 178.832901,166.455246 179.367050,164.389542 
	C181.250717,157.104935 179.134506,154.151871 171.653183,154.358139 
	C160.922699,154.653992 151.056534,152.781082 143.211075,144.804367 
	C139.304749,140.832703 136.937210,136.114883 137.832230,130.383728 
	C138.307297,127.341690 139.620850,124.232712 142.993179,123.724014 
	C146.286530,123.227226 146.597153,126.592606 147.542725,128.760773 
	C152.895050,141.033569 165.819244,146.853607 178.525909,142.639969 
	C179.956848,142.165451 181.381638,141.665909 182.035446,139.333710 
	C177.399597,137.081635 172.361542,135.699142 167.406906,134.086197 
	C160.071030,131.698044 153.729126,127.957268 150.073883,120.766098 
	C149.160187,118.968513 148.414032,117.081398 148.756790,115.014374 
	C149.250305,112.038261 149.704620,108.595520 152.846115,107.525780 
	C155.945068,106.470520 157.513229,109.591728 159.011383,111.645744 
	C170.234970,127.033264 186.724533,129.421143 203.651108,128.320068 
	C216.252884,127.500336 225.279938,110.826370 221.164246,98.848251 
	C219.341232,93.542648 216.173569,91.111649 210.314270,91.016159 
	C203.991119,90.913101 197.682922,91.149643 191.465302,89.493950 
	C179.051758,86.188347 171.046021,77.160957 169.821609,64.387131 
	C168.886719,54.633682 170.355316,45.127342 173.670135,35.912830 
	C174.502579,33.598835 175.722031,31.411949 178.613419,31.989115 
	C181.281815,32.521767 182.250839,34.791473 182.275497,37.294434 
	C182.311600,40.957047 182.271088,44.631176 182.019760,48.283646 
	C181.471573,56.249985 183.465988,63.440441 188.078873,69.953499 
	C192.617523,76.361710 200.967621,79.344849 207.920441,76.767220 
	C207.539246,73.919205 205.342255,72.286407 203.515701,70.477173 
	C191.892120,58.963631 185.985687,45.152908 186.683121,28.699890 
	C186.957993,22.215275 189.067947,16.314043 192.835358,11.031537 
	C194.363098,8.889380 196.265121,7.188221 199.140839,8.173656 
	C201.753250,9.068861 203.291229,11.146951 203.295593,13.862208 
	C203.303894,19.018764 203.018326,24.176228 202.834213,29.332577 
	C202.359375,42.631058 205.564621,54.834167 214.482254,64.940666 
	C220.736526,72.028717 228.684616,75.007996 238.306320,72.908363 
	C243.080215,71.866608 247.634079,70.427277 251.852570,68.001274 
	C266.986786,59.297741 268.610809,37.309956 254.959198,26.356009 
	C253.011307,24.793022 251.039322,23.249691 249.201553,21.563164 
	C247.778290,20.257008 247.065201,18.508837 247.616272,16.578856 
	C248.249695,14.360351 250.166443,13.543206 252.198502,13.244236 
	C255.488693,12.760159 258.463806,13.908443 261.199066,15.596102 
	C265.797760,18.433496 269.510468,22.230213 272.669098,26.591465 
	C273.809204,28.165638 274.662384,30.034384 277.017731,31.020811 
	C278.584961,27.277153 276.088409,24.502512 275.303833,21.498285 
	C274.578491,18.720810 272.058777,15.539245 275.804504,13.549568 
	C279.687592,11.486932 283.023193,13.701062 285.223419,16.923143 
	C288.867432,22.259563 289.046844,28.674873 289.110474,34.727051 
	C289.313141,54.012028 283.728973,71.738205 273.793671,88.258362 
	C252.457504,123.735619 224.673477,153.690964 194.606735,181.767014 
	C177.195343,198.025620 159.991425,214.507446 142.792557,230.991516 
	C140.213928,233.462997 136.762970,235.164902 135.040878,239.071960 
	C141.431442,240.700760 147.432770,239.328705 153.394928,238.263519 
	C162.808289,236.581772 172.279648,236.389114 181.783173,236.803925 
	C183.886154,236.895721 186.433456,236.752731 187.350128,239.245117 
	C188.230194,241.637939 186.420578,243.292923 184.977646,244.901749 
	C177.048767,253.742157 168.956528,258.084595 154.982101,260.929596 
	C155.356308,263.019531 157.108337,263.739166 158.581833,264.630035 
	C165.369568,268.733948 172.539825,270.377594 180.551819,269.013794 
	C189.694916,267.457397 192.415192,270.126404 193.462143,279.168549 
	C194.868607,291.315704 194.074768,303.475159 194.196838,315.621307 
	C194.436249,339.444122 195.651382,363.197449 197.892105,386.910492 
	C198.251602,390.714905 198.099335,394.568970 198.155991,398.400452 
	C198.223648,402.973755 195.704819,405.008392 191.375885,405.304260 
	C180.479111,406.049011 169.411530,396.076263 168.778900,384.980957 
	C168.482529,379.782654 169.078644,374.660217 170.019272,369.581665 
	C173.713135,349.638458 177.480194,329.708801 181.217285,309.773590 
	C181.512634,308.198151 182.232361,306.587677 180.893173,305.001953 
	C178.115234,305.711304 177.701065,308.200378 176.924332,310.271484 
	C169.208191,330.846252 164.556396,352.023041 164.040649,374.082062 
	C163.901520,380.032959 163.831924,386.105774 161.942398,391.872803 
	C159.928421,398.019684 156.146927,398.883545 151.652649,394.149536 
	C143.214035,385.260773 140.929184,374.834808 143.074448,362.788544 
	C146.849060,341.593292 153.541000,321.175110 158.821899,300.384064 
	C159.336761,298.357025 160.424957,296.321716 158.778564,294.035614 
	C156.160919,294.594543 155.280106,296.884491 154.035599,298.730194 
	C147.824097,307.942322 145.967880,318.721405 143.316879,329.175720 
	C140.169998,341.585571 137.095581,354.009094 135.295578,366.733368 
	C134.269669,373.985657 129.815613,375.278473 124.166451,370.526794 
	C115.658195,363.370270 112.392075,350.548859 116.581802,340.347931 
	C121.379829,328.665924 127.337418,317.412018 129.229645,304.684204 
	C129.822693,300.695129 129.806351,296.748901 128.443130,292.252808 
	C125.803131,297.967682 122.973228,303.604156 120.573303,309.418091 
	C117.843040,316.032288 115.647949,322.866791 112.942421,329.492065 
	C110.058006,336.555389 106.363190,336.990082 101.976776,330.900330 
	C97.110512,324.144409 92.399551,317.276855 87.591415,310.478821 
	C83.852570,305.192596 78.984169,301.947906 72.328857,301.228210 
	C69.078094,300.876678 65.914658,299.524109 62.767143,298.460541 
	C58.926460,297.162750 56.348236,294.399872 54.558971,290.839783 
	C51.812347,285.374725 52.876175,282.993896 58.670433,281.373291 
	C61.544884,280.569305 64.432350,279.750061 67.201370,278.653534 
	C68.924370,277.971191 70.503510,276.586761 70.373878,274.550842 
	C70.249504,272.597443 68.250610,272.175049 66.748344,271.537781 
	C64.301331,270.499725 61.687634,269.791260 59.364521,268.536072 
	C51.746109,264.419769 48.810345,256.864014 51.250462,248.566879 
	C52.395836,244.672211 54.735580,242.543961 58.880863,242.912674 
	C63.021595,243.280975 67.160736,243.725937 71.274857,244.316467 
	C74.704201,244.808716 78.073700,244.799011 81.582375,244.055954 
	C75.785995,240.874420 70.291069,237.488800 65.334366,233.359680 
	C59.358334,228.381439 54.388523,222.633942 53.007915,214.215271 
M107.742737,262.704742 
	C111.535576,262.899078 114.737457,261.850128 117.004272,258.609222 
	C110.765717,252.288467 104.185883,252.785675 100.990982,259.691315 
	C102.486656,261.632202 104.705132,262.183197 107.742737,262.704742 
z"/>
<path fill="#000000" opacity="1.000000" stroke="none" 
	d="
M763.024048,230.000000 
	C763.024109,209.404785 763.024109,189.309570 763.024109,168.292694 
	C756.782959,171.746155 752.677795,176.096832 748.109558,179.780212 
	C732.420593,192.430267 716.933289,205.330597 701.231873,217.964951 
	C697.858093,220.679764 696.162659,223.471283 696.202026,228.030701 
	C696.425354,253.861740 696.302185,279.695709 696.319885,305.528656 
	C696.325806,314.179291 699.760071,317.827759 708.539551,318.686707 
	C711.356323,318.962311 714.159546,319.400513 716.980530,319.603699 
	C719.035217,319.751740 720.612976,320.179565 720.544739,322.698761 
	C720.473511,325.324127 718.705322,325.442932 716.731140,325.438293 
	C706.064636,325.413361 695.398132,325.419922 684.731628,325.416077 
	C678.898376,325.413971 673.064575,325.460022 667.232239,325.386993 
	C665.020752,325.359344 662.056335,326.021057 662.112549,322.392761 
	C662.163757,319.081726 664.947754,319.748169 666.989258,319.693817 
	C670.653503,319.596283 674.328979,319.506378 677.986328,319.687195 
	C681.419495,319.856903 682.773865,318.546570 682.696106,315.053131 
	C682.533081,307.723663 682.662842,300.387817 682.663086,293.054596 
	C682.664673,246.555237 682.665100,200.055878 682.662476,153.556519 
	C682.661926,143.096436 680.217712,140.247818 669.948975,138.904938 
	C667.311523,138.560028 664.642578,138.436752 661.984253,138.275620 
	C659.920166,138.150513 658.383789,137.545258 658.433960,135.088913 
	C658.480103,132.831375 659.619751,131.755295 661.864014,131.756256 
	C679.029968,131.763580 696.195923,131.762650 713.361877,131.763626 
	C715.607117,131.763748 716.792847,132.854431 716.715759,135.128647 
	C716.635620,137.494583 715.118774,138.196747 713.022461,138.202026 
	C708.856079,138.212540 704.687866,138.328903 700.523865,138.240463 
	C697.647583,138.179367 696.270081,139.163559 696.282288,142.273331 
	C696.368896,164.272293 696.346985,186.271698 696.384094,208.270920 
	C696.384888,208.706833 696.682617,209.142242 697.102905,210.292206 
	C702.881653,205.610184 708.405151,201.181427 713.878479,196.691574 
	C729.077515,184.223450 744.128357,171.569672 759.516357,159.339828 
	C764.414795,155.446716 763.293945,150.795990 762.533020,146.206100 
	C761.819031,141.899353 758.133240,140.093002 754.173584,139.402054 
	C750.737488,138.802475 747.225403,138.607590 743.738770,138.339447 
	C741.484680,138.166107 739.222900,138.115265 739.154602,135.043015 
	C739.085571,131.940659 741.231079,131.726959 743.575256,131.728668 
	C760.075012,131.740707 776.574768,131.728271 793.074524,131.730194 
	C795.341492,131.730453 797.580444,131.818466 797.603821,134.963821 
	C797.627319,138.130203 795.382751,138.207184 793.114685,138.220795 
	C789.781494,138.240768 786.426331,138.493774 783.120361,138.199478 
	C778.623291,137.799103 776.927429,139.337524 777.036743,144.042068 
	C777.311584,155.868683 777.111267,167.706161 777.112610,179.539291 
	C777.117310,221.372009 777.123352,263.204712 777.136719,305.037445 
	C777.139709,314.468658 780.243286,317.802124 789.738831,318.715576 
	C792.555786,318.986572 795.356567,319.432953 798.175598,319.671265 
	C800.234985,319.845367 801.145020,320.852356 801.119507,322.882019 
	C801.089783,325.241089 799.534485,325.470703 797.718323,325.467590 
	C780.718689,325.438354 763.719055,325.429749 746.719421,325.388092 
	C744.876160,325.383575 742.901794,325.437836 742.802368,322.736084 
	C742.692810,319.757904 744.751038,319.696838 746.842041,319.683105 
	C750.341919,319.660156 753.864929,319.403412 757.335999,319.715088 
	C761.795410,320.115448 763.067139,318.303680 763.047363,313.997711 
	C762.919312,286.165710 763.007019,258.332672 763.024048,230.000000 
z"/>
<path fill="#000000" opacity="1.000000" stroke="none" 
	d="
M357.812775,204.000000 
	C357.807007,185.174698 357.826019,166.849319 357.784637,148.524109 
	C357.766327,140.416397 355.084198,137.387375 347.083099,136.344589 
	C343.787323,135.915039 340.472839,135.603775 337.158142,135.354340 
	C335.227905,135.209061 333.997925,134.514816 333.882202,132.415619 
	C333.750183,130.020950 335.129272,129.058655 337.239960,129.047104 
	C347.401123,128.991440 357.562653,129.009888 367.724060,128.987823 
	C370.553406,128.981674 371.373535,130.547775 371.410339,133.143112 
	C371.442505,135.409256 370.833984,137.788101 372.265778,140.369537 
	C377.622040,138.298737 382.887085,135.966309 388.337433,134.208389 
	C409.730499,127.308403 431.133087,126.869728 452.408356,134.782288 
	C477.082489,143.958923 492.717651,167.548340 494.578156,193.872391 
	C497.544098,235.837036 465.344818,271.174866 427.565674,277.645630 
	C410.703400,280.533752 393.742004,280.354797 377.119904,275.307159 
	C375.570221,274.836578 374.100983,273.819061 372.009033,274.348602 
	C370.758606,277.040771 371.484680,280.060333 371.437378,282.954468 
	C371.314850,290.449158 371.383057,297.947083 371.388062,305.443695 
	C371.393524,313.594025 375.045410,317.681763 383.187836,318.639343 
	C386.327881,319.008606 389.467682,319.416046 392.619446,319.636810 
	C394.633850,319.777893 395.748169,320.578522 395.719604,322.663025 
	C395.689056,324.892456 394.251892,325.387573 392.368439,325.387177 
	C375.209412,325.383514 358.050385,325.389343 340.891357,325.400360 
	C338.806946,325.401703 337.268188,324.865601 337.386688,322.331085 
	C337.492096,320.076965 338.935822,319.662903 340.792480,319.669678 
	C344.457397,319.683075 348.153076,319.360291 351.780090,319.728058 
	C356.772247,320.234222 357.904602,318.108887 357.882416,313.451019 
	C357.722076,279.799866 357.805939,246.147568 357.812317,212.495636 
	C357.812805,209.830429 357.812775,207.165207 357.812775,204.000000 
M476.440857,186.090347 
	C465.762817,141.236435 412.140472,126.340134 377.492004,150.054123 
	C373.298798,152.924026 371.202454,155.989105 371.257538,161.442337 
	C371.552032,190.601578 371.480713,219.765961 371.291901,248.927002 
	C371.264465,253.169464 372.734619,255.754196 376.189392,257.883026 
	C389.990143,266.386963 404.699371,270.229706 420.975311,267.806946 
	C460.658447,261.899933 485.652374,225.671783 476.440857,186.090347 
z"/>
<path fill="#000000" opacity="1.000000" stroke="none" 
	d="
M579.463013,193.636597 
	C593.488403,231.268051 607.482544,268.497894 621.202454,305.828522 
	C624.400330,314.529358 629.099304,320.388275 639.239075,319.669373 
	C641.433411,319.513824 643.282654,320.014130 643.089661,322.894623 
	C642.909973,325.575775 641.010559,325.461151 639.123474,325.457245 
	C626.796326,325.431671 614.469177,325.426605 602.142151,325.382111 
	C600.149719,325.374908 597.865234,325.548035 597.902588,322.543121 
	C597.938965,319.614471 600.158691,319.806030 602.182129,319.659363 
	C604.790833,319.470245 607.484680,320.188293 610.030151,319.062378 
	C610.821167,317.008850 609.561340,315.444458 608.948425,313.805695 
	C595.596497,278.108337 582.169006,242.439148 568.896667,206.712311 
	C567.655823,203.372055 565.936035,201.909515 562.356201,202.058212 
	C557.200989,202.272339 552.022644,202.284180 546.868713,202.055267 
	C543.118530,201.888687 541.586975,203.474228 540.884460,207.050781 
	C537.166626,225.978821 533.257324,244.869217 529.419861,263.773773 
	C526.875366,276.308960 524.340088,288.845947 521.799683,301.381958 
	C521.766663,301.545105 521.713257,301.704224 521.682373,301.867676 
	C519.153687,315.232483 521.052856,317.765717 534.250671,319.539734 
	C536.527100,319.845703 540.939575,317.849762 540.523193,322.696045 
	C540.150574,327.032410 536.127625,325.300079 533.655151,325.331696 
	C520.830261,325.495728 508.001770,325.458252 495.175568,325.358490 
	C493.120392,325.342529 490.020874,326.452271 489.863861,322.690643 
	C489.705383,318.894470 492.755463,319.757568 494.893890,319.695709 
	C503.822571,319.437317 502.780212,321.395752 505.373047,311.330170 
	C510.389069,291.857574 514.683533,272.197693 519.183350,252.593918 
	C526.211792,221.974350 533.156250,191.335526 540.149414,160.707855 
	C542.185242,151.791733 544.273438,142.887573 546.320984,133.974091 
	C546.941467,131.272705 546.858582,128.298569 550.960266,128.049667 
	C555.030762,127.802666 555.983521,130.522980 557.046936,133.378540 
	C563.784363,151.469894 570.515259,169.563721 577.247742,187.656906 
	C577.944031,189.527939 578.637146,191.400116 579.463013,193.636597 
M561.445923,187.033401 
	C557.960449,177.886749 554.474976,168.740097 550.754700,158.977325 
	C548.570007,169.170135 546.554016,178.564682 544.543884,187.960434 
	C543.858887,191.162491 544.621948,193.158005 548.435608,193.000595 
	C551.584778,192.870605 554.750671,192.875504 557.898010,193.037521 
	C562.039978,193.250732 563.537598,191.773636 561.445923,187.033401 
z"/>
<path fill="#000000" opacity="1.000000" stroke="none" 
	d="
M341.746765,37.493279 
	C339.955261,35.676559 337.949585,35.500935 335.969482,35.211845 
	C334.864471,35.050518 334.137573,34.359756 334.095978,33.225719 
	C334.046051,31.864611 334.839844,30.842365 336.145874,30.873518 
	C349.705688,31.196981 363.414093,27.593723 376.805725,31.919096 
	C385.379150,34.688240 386.676025,40.820152 380.499329,47.483238 
	C379.946411,48.079708 379.390564,48.673481 378.833893,49.270855 
	C379.658630,51.357483 381.650146,51.017647 383.044708,51.596878 
	C389.025635,54.081070 393.120850,58.193810 394.001770,64.714790 
	C394.831177,70.854393 391.438477,75.096077 386.774200,78.558861 
	C380.665588,83.093918 373.624420,84.990479 366.226898,85.248543 
	C357.253448,85.561569 348.260132,85.367470 339.276611,85.276138 
	C337.483215,85.257904 334.855042,86.104843 334.651642,82.996231 
	C334.462158,80.100136 336.765076,80.053856 338.798676,79.973701 
	C340.761108,79.896355 342.628784,79.658226 342.612701,77.122513 
	C342.529510,64.017456 343.679840,50.891884 341.746765,37.493279 
M380.849976,59.712132 
	C373.746216,52.788361 365.220184,54.840210 356.871979,55.978828 
	C355.196808,56.207306 354.371063,57.489880 354.368835,59.208900 
	C354.361328,65.017578 354.360291,70.826256 354.352814,76.634933 
	C354.350281,78.605698 355.243530,79.785530 357.280579,79.897392 
	C364.647827,80.301949 371.898438,80.244774 378.280792,75.636253 
	C384.205078,71.358521 385.267365,66.328156 380.849976,59.712132 
M354.338196,39.892818 
	C354.353729,42.371288 354.359344,44.849869 354.388245,47.328186 
	C354.408447,49.060741 355.257141,50.409199 357.001678,50.301422 
	C362.084381,49.987408 367.307678,50.038986 371.650482,46.670521 
	C373.352539,45.350307 374.123505,43.647171 373.871765,41.472588 
	C373.599396,39.119831 371.964905,38.076118 369.981140,37.493305 
	C365.978882,36.317448 361.864746,36.080803 357.711212,36.227806 
	C355.817810,36.294811 354.492706,36.903721 354.338196,39.892818 
z"/>
<path fill="#000000" opacity="1.000000" stroke="none" 
	d="
M536.939941,37.004700 
	C540.991333,41.069191 542.124573,45.834862 542.105652,50.985458 
	C542.076355,58.975010 541.981567,66.964310 541.947327,74.953865 
	C541.934448,77.950050 542.209106,80.738083 546.273254,80.856209 
	C547.825806,80.901337 548.700073,81.952225 548.553345,83.544411 
	C548.385193,85.368660 546.925354,85.558144 545.579468,85.404602 
	C540.732239,84.851700 535.706604,86.681084 530.959290,84.117462 
	C530.058167,83.630821 528.418152,84.415520 527.147339,84.728531 
	C523.192505,85.702652 519.214111,85.727219 515.286133,84.790619 
	C503.500092,81.980309 495.293976,68.217751 506.951691,55.694920 
	C503.076050,55.007423 502.578857,52.374226 502.742889,49.171417 
	C502.930115,45.515221 502.701843,41.839130 502.833557,38.178139 
	C502.900787,36.309780 502.070740,33.901009 504.544403,32.925846 
	C507.226746,31.868418 508.845001,33.564812 509.868958,35.903896 
	C519.160583,31.983114 528.079773,30.403540 536.939941,37.004700 
M531.629333,63.084530 
	C531.634033,61.563007 531.556885,60.054188 530.153442,59.069035 
	C525.703308,55.945267 520.965149,55.516254 516.024658,57.727879 
	C511.684998,59.670574 508.319092,62.528099 508.378387,67.738403 
	C508.440186,73.171753 512.109009,76.025375 516.589355,77.925278 
	C525.463196,81.688263 531.670776,77.721672 531.650452,68.441101 
	C531.647156,66.948334 531.641602,65.455566 531.629333,63.084530 
M529.857117,44.864159 
	C525.558655,39.365631 521.174316,37.917809 516.125549,40.329681 
	C510.552094,42.992210 508.547485,46.850437 509.853790,53.313332 
	C516.486877,50.377457 523.489807,50.257038 530.280273,51.149773 
	C531.130554,48.711033 530.798340,47.112133 529.857117,44.864159 
z"/>
<path fill="#000000" opacity="1.000000" stroke="none" 
	d="
M401.834900,30.340277 
	C406.890778,30.088667 411.549103,29.964760 416.208160,29.918932 
	C418.032318,29.900988 419.577789,30.522526 419.716858,32.643005 
	C419.840576,34.528984 418.635345,35.286736 416.909302,35.403893 
	C414.704712,35.553535 414.241425,37.024494 414.247101,38.876423 
	C414.256714,42.021568 414.249756,45.166767 414.249756,49.619350 
	C419.534180,45.212788 423.980560,41.505051 428.637054,37.622093 
	C427.704712,36.876648 427.378143,36.495277 426.963806,36.304573 
	C424.911713,35.360096 421.197021,36.039066 421.942017,32.224087 
	C422.631012,28.695852 425.942535,30.064726 428.212402,29.931385 
	C431.531921,29.736385 434.873566,29.875984 438.204620,29.937338 
	C439.809265,29.966896 441.197968,30.420357 441.395111,32.367470 
	C441.576752,34.161995 440.873016,35.243526 438.989929,35.432003 
	C436.539276,35.677284 436.224823,37.424629 436.221436,39.401043 
	C436.199890,51.897346 436.200043,64.393822 436.121185,76.889793 
	C436.103912,79.626602 436.976562,81.413467 439.940033,81.667068 
	C441.759613,81.822800 442.631989,82.882980 442.523865,84.662910 
	C442.407318,86.581757 441.044830,87.151489 439.403687,87.161583 
	C434.906128,87.189240 430.407318,87.199226 425.910828,87.116745 
	C424.246796,87.086220 423.017059,86.285500 422.973602,84.403564 
	C422.936646,82.802528 423.817871,81.893204 425.366180,81.770844 
	C427.585754,81.595451 428.647980,80.513573 428.642181,78.251732 
	C428.615814,67.945992 428.630585,57.640148 428.630585,47.200245 
	C419.481537,50.383202 414.197418,57.597286 414.193054,66.513496 
	C414.191650,69.346016 414.317322,72.184113 414.179413,75.009621 
	C414.011566,78.448700 414.251526,81.383209 418.677032,81.822098 
	C420.221130,81.975227 420.840851,83.297142 420.662811,84.798874 
	C420.475555,86.377800 419.365814,87.121002 417.891663,87.138847 
	C413.228149,87.195290 408.563171,87.200882 403.899658,87.147377 
	C402.436157,87.130592 401.316864,86.406670 401.120758,84.817291 
	C400.901306,83.038635 401.666046,81.865936 403.522766,81.741745 
	C406.619141,81.534645 406.673950,79.384598 406.672791,77.100548 
	C406.666626,64.937340 406.605774,52.773312 406.739349,40.611496 
	C406.772614,37.585381 405.752686,36.014751 402.749390,35.385918 
	C399.450317,34.695160 399.150726,32.861816 401.834900,30.340277 
z"/>
<path fill="#000000" opacity="1.000000" stroke="none" 
	d="
M484.241852,63.863678 
	C485.702179,67.819077 487.027100,71.410172 488.367981,74.995300 
	C489.516754,78.066780 490.083038,81.585915 494.451019,81.940552 
	C495.835785,82.052994 496.170044,83.368546 496.118713,84.621742 
	C496.063721,85.964340 495.286774,86.951797 494.002625,86.991821 
	C490.013458,87.116142 485.957855,87.485519 482.044983,86.932487 
	C478.893158,86.487030 478.679108,83.832062 480.820160,81.891289 
	C482.165100,80.672134 482.091827,79.775360 481.611877,78.489532 
	C478.120178,69.135254 474.627808,59.781139 471.087128,50.445393 
	C470.816376,49.731503 470.590485,48.802326 469.232574,48.564030 
	C466.066803,58.861095 464.993958,69.605263 462.713745,79.727127 
	C463.404541,81.162659 464.367828,81.482117 465.349457,81.680000 
	C467.255890,82.064323 467.680115,83.357185 467.462799,85.022072 
	C467.244843,86.691124 466.020752,87.142006 464.574585,87.152016 
	C461.077606,87.176231 457.579834,87.189674 454.083435,87.136810 
	C452.726562,87.116295 451.317322,86.892464 450.948944,85.257362 
	C450.594421,83.683746 450.767303,82.296303 452.651642,81.669945 
	C455.155182,80.837776 455.298004,78.558975 455.777222,76.436066 
	C458.998840,62.164928 462.275360,47.906208 465.512421,33.638542 
	C465.960388,31.664135 466.178772,29.539267 468.829071,29.337391 
	C471.479340,29.135521 472.087189,31.224520 472.786804,33.093594 
	C476.578094,43.222095 480.340820,53.361275 484.241852,63.863678 
z"/>
<path fill="#000000" opacity="1.000000" stroke="none" 
	d="
M757.775024,86.169594 
	C758.855164,88.665871 759.701233,90.833633 760.632263,92.964287 
	C761.479126,94.902214 760.999573,96.500763 759.618164,97.973396 
	C742.540771,116.179230 714.702026,116.710083 700.345032,96.109123 
	C698.425781,93.355179 698.358154,91.804276 701.145203,89.577843 
	C710.535217,82.076683 710.446594,81.965645 715.228149,92.491005 
	C718.912842,100.601898 726.665771,104.714607 736.133606,103.580620 
	C745.696655,102.435226 750.641724,97.813507 752.502441,88.258705 
	C752.812012,86.669312 752.521484,84.737915 754.509705,84.049126 
	C756.067200,83.509575 757.007385,84.446251 757.775024,86.169594 
z"/>
<path fill="#000000" opacity="1.000000" stroke="none" 
	d="
M674.992920,404.888672 
	C666.976685,403.280762 663.158875,398.601868 663.988464,391.901947 
	C664.765991,385.622528 668.811829,381.829529 674.814331,381.752747 
	C680.944458,381.674316 684.728271,385.152832 685.668640,391.731354 
	C686.522217,397.702057 683.421448,402.707947 677.819153,404.360168 
	C677.027100,404.593781 676.198730,404.704559 674.992920,404.888672 
M680.661194,389.821289 
	C679.524719,386.744812 677.231995,385.346558 674.065002,385.724701 
	C670.762451,386.119049 669.345581,388.625427 668.664551,391.515594 
	C667.918579,394.681732 668.783569,397.510529 671.412354,399.497559 
	C674.446533,401.791016 678.578308,400.710754 680.252625,397.265259 
	C681.291321,395.127838 681.782471,392.866608 680.661194,389.821289 
z"/>
<path fill="#000000" opacity="1.000000" stroke="none" 
	d="
M366.922546,395.518555 
	C366.574890,390.217468 367.322571,385.704437 372.037231,383.027405 
	C376.431396,380.532349 382.822815,381.641357 385.796234,385.225311 
	C388.956390,389.034363 389.071960,396.694244 386.029816,400.703552 
	C383.011108,404.681854 377.266815,405.958191 372.502899,403.789703 
	C369.094299,402.238159 367.840240,399.244995 366.922546,395.518555 
M371.529327,390.362549 
	C370.758789,397.735565 373.352051,401.539215 378.523132,400.482697 
	C381.860931,399.800751 383.655365,397.717102 383.814484,394.195282 
	C383.976990,390.599487 383.352112,387.403992 379.564270,386.049683 
	C375.963837,384.762390 373.493500,386.482208 371.529327,390.362549 
z"/>
<path fill="#000000" opacity="1.000000" stroke="none" 
	d="
M427.815460,398.820984 
	C427.816833,394.348511 427.799530,390.355621 427.836243,386.363159 
	C427.850006,384.868591 427.776794,382.991913 429.582733,382.632111 
	C434.386505,381.675018 439.227386,381.298492 444.213165,383.117279 
	C442.970490,386.873230 440.284088,385.730042 438.205261,386.105804 
	C436.144257,386.478363 432.715881,384.889465 432.550507,388.330566 
	C432.373322,392.016632 435.888977,390.395172 437.904999,390.789185 
	C438.709534,390.946411 439.566742,390.810913 440.392975,390.885956 
	C441.609406,390.996460 442.813965,391.342651 442.899780,392.789459 
	C443.007477,394.605530 441.555786,394.909912 440.201477,395.012970 
	C438.380493,395.151489 436.544647,395.083282 434.719818,395.186462 
	C433.433990,395.259125 432.489716,395.855835 432.386414,397.285370 
	C432.267334,398.933563 433.170044,399.796204 434.705933,399.920563 
	C436.857880,400.094879 439.027374,400.060516 441.176788,400.254730 
	C442.549072,400.378723 443.946014,400.855255 443.823608,402.595428 
	C443.717163,404.108093 442.375702,404.264618 441.198914,404.277161 
	C437.872589,404.312531 434.544983,404.302887 431.218750,404.253693 
	C427.801025,404.203094 427.902557,401.673553 427.815460,398.820984 
z"/>
<path fill="#000000" opacity="1.000000" stroke="none" 
	d="
M593.099365,401.538635 
	C593.529175,404.131439 591.975525,404.152374 590.410278,404.325012 
	C578.007385,405.692993 577.688538,405.418427 577.638977,392.913086 
	C577.591980,381.031372 577.592651,381.022766 589.547302,381.996216 
	C591.138672,382.125763 593.349426,381.848694 593.171875,384.278351 
	C593.028809,386.236298 591.033081,385.990967 589.580444,386.066345 
	C587.753235,386.161133 585.916809,386.096680 584.092163,386.217773 
	C582.589844,386.317474 581.531738,387.056610 581.657227,388.742828 
	C581.766602,390.212494 582.871826,390.634949 584.118103,390.696869 
	C586.112061,390.795959 588.112366,390.773102 590.105591,390.881958 
	C591.366638,390.950806 592.442871,391.459076 592.454773,392.926208 
	C592.467102,394.443146 591.256958,394.845734 590.076477,394.949097 
	C588.256592,395.108490 586.420532,395.083893 584.591187,395.132935 
	C582.936646,395.177338 581.522461,395.623779 581.564270,397.611206 
	C581.606140,399.605530 583.120056,399.847565 584.709778,400.032379 
	C587.457703,400.351776 590.408752,399.269592 593.099365,401.538635 
z"/>
<path fill="#000000" opacity="1.000000" stroke="none" 
	d="
M754.835205,395.921600 
	C754.838501,392.274323 754.815979,389.109009 754.857422,385.944519 
	C754.879639,384.250885 754.895691,382.300873 757.283630,382.407166 
	C759.353271,382.499329 759.247498,384.311615 759.284912,385.809723 
	C759.343323,388.149506 758.971558,390.549011 762.593201,390.698730 
	C765.983215,390.838837 768.144165,390.230927 767.764709,386.166748 
	C767.620361,384.621002 767.393799,382.391296 769.913940,382.529022 
	C772.212158,382.654602 772.024841,384.779694 772.050476,386.390472 
	C772.124512,391.053375 772.131531,395.718628 772.070435,400.381714 
	C772.049255,402.000854 772.165527,404.101959 769.708679,403.928375 
	C767.707031,403.786987 767.693665,401.898621 767.769226,400.437317 
	C767.949707,396.946350 767.287842,394.510956 762.923889,394.934326 
	C760.479614,395.171509 759.408325,396.112762 759.257202,398.621765 
	C759.141541,400.540833 760.376953,403.827332 757.234436,403.870514 
	C753.651489,403.919708 755.285522,400.426788 754.866028,398.398712 
	C754.733704,397.759064 754.839355,397.070221 754.835205,395.921600 
z"/>
<path fill="#000000" opacity="1.000000" stroke="none" 
	d="
M611.291016,397.564209 
	C615.552795,401.778473 617.518677,401.669708 621.007385,397.186646 
	C621.987122,395.927612 622.876587,394.523376 624.572632,395.661652 
	C626.170105,396.733765 625.423767,398.346863 624.801208,399.708069 
	C622.385071,404.990601 614.616394,406.484406 609.785828,402.625183 
	C606.037170,399.630341 604.962219,392.215393 607.507446,386.908630 
	C609.411743,382.938202 614.045532,380.898987 618.931885,381.924744 
	C621.684814,382.502655 623.882751,383.886993 624.997375,386.581940 
	C625.447571,387.670441 625.743347,388.908447 624.456177,389.682495 
	C623.477722,390.270874 622.450989,389.984100 621.776184,389.130432 
	C619.504211,386.256165 616.784729,384.168671 613.325012,386.779297 
	C609.809509,389.431976 609.846130,393.307343 611.291016,397.564209 
z"/>
<path fill="#000000" opacity="1.000000" stroke="none" 
	d="
M739.099976,392.042053 
	C740.036865,396.109375 742.427856,399.317078 742.676941,403.373688 
	C740.103394,405.075500 738.632446,403.846252 737.898743,401.490051 
	C737.121643,398.994202 735.565308,398.243591 733.093506,398.178253 
	C730.475098,398.109070 729.115540,399.267334 728.372681,401.602051 
	C727.896301,403.099121 727.079529,404.564758 725.220276,403.929199 
	C723.127075,403.213654 724.015381,401.491730 724.509460,400.171783 
	C726.423096,395.059875 728.446533,389.989166 730.395081,384.890106 
	C730.976990,383.367340 731.861694,382.285553 733.619446,382.316467 
	C735.432739,382.348389 736.154724,383.657684 736.681396,385.113434 
	C737.469299,387.291168 738.220581,389.482117 739.099976,392.042053 
z"/>
<path fill="#000000" opacity="1.000000" stroke="none" 
	d="
M350.327087,384.261230 
	C351.808716,382.427673 353.205231,381.494934 355.106232,383.049072 
	C353.930023,387.595337 354.279572,399.477112 355.680847,403.251526 
	C353.156311,404.008606 353.156311,404.008606 346.942108,397.778259 
	C344.439240,398.187378 344.059814,400.702209 342.727051,402.251129 
	C341.312073,403.895508 339.930481,405.087799 337.007324,403.006287 
	C343.153076,396.847351 345.671173,390.161072 337.097351,383.411041 
	C343.400787,380.664459 343.388794,386.728516 346.362244,388.014954 
	C348.457825,387.860687 348.986877,385.855682 350.327087,384.261230 
z"/>
<path fill="#000000" opacity="1.000000" stroke="none" 
	d="
M713.057495,383.924561 
	C717.237000,390.219421 715.067383,395.495148 708.045410,396.292175 
	C704.637024,396.679047 702.741821,397.520264 703.147034,401.298340 
	C703.296204,402.688660 702.756348,404.000549 701.007568,404.050629 
	C698.816711,404.113373 698.770752,402.440216 698.755859,400.942291 
	C698.708130,396.135315 698.851257,391.323944 698.699280,386.521301 
	C698.597839,383.316101 699.974121,381.957123 703.085876,381.999390 
	C706.396362,382.044373 709.747314,381.765564 713.057495,383.924561 
M709.415222,386.787476 
	C707.218323,386.149902 704.784546,385.027222 703.488892,387.975494 
	C702.930115,389.247101 702.790894,391.067322 704.182434,392.097137 
	C705.463440,393.045135 707.072632,392.802704 708.437683,392.111938 
	C710.505066,391.065704 711.395264,389.507721 709.415222,386.787476 
z"/>
<path fill="#000000" opacity="1.000000" stroke="none" 
	d="
M549.467346,382.417114 
	C552.705322,381.829224 555.530029,381.792328 558.324280,382.333313 
	C562.052429,383.055115 564.297424,385.218170 564.212524,389.181000 
	C564.129883,393.037231 561.937317,395.844604 558.288269,396.053619 
	C553.839722,396.308472 551.496399,397.605743 551.803711,402.367096 
	C551.870728,403.405670 550.883728,404.095245 549.704285,403.996216 
	C548.797119,403.920074 547.968933,403.411774 547.987488,402.514526 
	C548.125122,395.858063 546.164246,389.083313 549.467346,382.417114 
M552.327637,387.917786 
	C552.153931,390.043610 551.561157,392.406036 554.902161,392.587006 
	C556.665039,392.682495 558.157227,392.086090 559.139404,390.598083 
	C559.841064,389.534943 559.818848,388.247864 558.854858,387.444427 
	C556.910645,385.824097 554.763916,385.538757 552.327637,387.917786 
z"/>
<path fill="#000000" opacity="1.000000" stroke="none" 
	d="
M461.419891,385.557434 
	C462.018860,383.671173 462.799255,382.363708 464.577881,382.352905 
	C466.432526,382.341644 466.895813,383.857544 467.478333,385.292847 
	C469.893829,391.244629 472.118317,397.248383 472.860657,403.898499 
	C466.233856,401.900360 468.805786,393.912720 464.485962,390.495819 
	C460.424194,394.113922 463.042786,401.952545 455.427795,404.731476 
	C456.349426,397.375397 459.164673,391.743805 461.419891,385.557434 
z"/>
<path fill="#000000" opacity="1.000000" stroke="none" 
	d="
M647.837463,389.145447 
	C647.840759,393.526520 647.883972,397.513519 647.781799,401.496796 
	C647.745300,402.917816 647.092773,404.178070 645.360657,403.997192 
	C643.851501,403.839661 643.693298,402.537567 643.676086,401.362946 
	C643.624878,397.873993 643.545349,394.380310 643.671509,390.895477 
	C643.776123,388.006073 643.227600,385.963287 639.706726,386.081085 
	C638.398438,386.124847 636.807617,385.907715 636.747620,384.142120 
	C636.687134,382.359436 638.258972,382.067627 639.575867,382.048615 
	C643.726135,381.988586 647.879639,382.029877 652.029419,382.130310 
	C653.263062,382.160156 654.375854,382.733429 654.286560,384.227020 
	C654.215454,385.415894 653.227600,385.808044 652.204895,386.008209 
	C650.389343,386.363556 647.903503,385.629395 647.837463,389.145447 
z"/>
<path fill="#000000" opacity="1.000000" stroke="none" 
	d="
M401.160126,386.074036 
	C399.410278,385.727783 397.955963,385.311798 398.302185,383.576660 
	C398.566925,382.249908 399.967865,382.072632 401.134521,382.057861 
	C404.943756,382.009674 408.754883,381.986877 412.563202,382.061066 
	C413.887512,382.086884 415.401794,382.321960 415.439178,384.099823 
	C415.470825,385.604980 414.139069,386.000519 412.992493,385.998840 
	C409.405457,385.993683 409.146423,388.274109 409.206940,391.010559 
	C409.280090,394.321808 409.232330,397.637665 409.152924,400.949493 
	C409.116028,402.486267 408.870605,404.123352 406.775421,403.986420 
	C405.011475,403.871094 404.867859,402.365082 404.839813,401.030609 
	C404.763184,397.386993 404.721893,393.741089 404.761017,390.097107 
	C404.785370,387.826721 404.258759,386.136108 401.160126,386.074036 
z"/>
<path fill="#000000" opacity="1.000000" stroke="none" 
	d="
M791.092102,381.969360 
	C794.041931,382.031189 796.525208,382.021149 798.996704,382.186890 
	C799.990295,382.253571 800.949829,382.759521 800.969971,384.005585 
	C800.989746,385.232422 800.081299,385.928223 799.090637,385.886536 
	C793.951294,385.670410 794.303589,389.137207 794.379395,392.566437 
	C794.445312,395.542755 794.375549,398.523193 794.314697,401.500793 
	C794.285339,402.937500 793.881897,404.253265 792.070374,404.032501 
	C790.567200,403.849335 790.469910,402.562744 790.477722,401.373535 
	C790.502625,397.567657 790.544495,393.761749 790.608887,389.956360 
	C790.642944,387.946503 790.284851,386.361023 787.782227,386.172394 
	C786.226013,386.055084 783.947815,386.257812 784.148499,383.892273 
	C784.337585,381.663086 786.595581,382.200348 788.140747,382.005768 
	C788.956055,381.903076 789.793457,381.975006 791.092102,381.969360 
z"/>
<path fill="#000000" opacity="1.000000" stroke="none" 
	d="
M511.645081,390.358643 
	C513.637573,393.712128 512.820862,396.275391 509.888763,397.767365 
	C507.524261,398.970490 504.931580,398.601013 503.201080,396.257782 
	C501.518799,393.979858 501.491364,391.477356 503.592621,389.497437 
	C506.253815,386.989929 508.978424,387.442505 511.645081,390.358643 
z"/>
</svg>